<svg width="24" height="24" viewBox="0 0 24 24" fill="none" xmlns="http://www.w3.org/2000/svg">
<path d="M9.3 22L8.9 18.8C8.68333 18.7167 8.47917 18.6167 8.2875 18.5C8.09583 18.3833 7.90833 18.2583 7.725 18.125L4.75 19.375L2 14.625L4.575 12.675C4.55833 12.5583 4.55 12.4458 4.55 12.3375V11.6625C4.55 11.5542 4.55833 11.4417 4.575 11.325L2 9.375L4.75 4.625L7.725 5.875C7.90833 5.74167 8.1 5.61667 8.3 5.5C8.5 5.38333 8.7 5.28333 8.9 5.2L9.3 2H14.8L15.2 5.2C15.4167 5.28333 15.6208 5.38333 15.8125 5.5C16.0042 5.61667 16.1917 5.74167 16.375 5.875L19.35 4.625L22.1 9.375L19.525 11.325C19.5417 11.4417 19.55 11.5542 19.55 11.6625V12.3375C19.55 12.4458 19.5333 12.5583 19.5 12.675L22.075 14.625L19.325 19.375L16.375 18.125C16.1917 18.2583 16 18.3833 15.8 18.5C15.6 18.6167 15.4 18.7167 15.2 18.8L14.8 22H9.3ZM11.05 20H13.025L13.375 17.35C13.8917 17.2167 14.3708 17.0208 14.8125 16.7625C15.2542 16.5042 15.6583 16.1917 16.025 15.825L18.5 16.85L19.475 15.15L17.325 13.525C17.4083 13.2917 17.4667 13.0458 17.5 12.7875C17.5333 12.5292 17.55 12.2667 17.55 12C17.55 11.7333 17.5333 11.4708 17.5 11.2125C17.4667 10.9542 17.4083 10.7083 17.325 10.475L19.475 8.85L18.5 7.15L16.025 8.2C15.6583 7.81667 15.2542 7.49583 14.8125 7.2375C14.3708 6.97917 13.8917 6.78333 13.375 6.65L13.05 4H11.075L10.725 6.65C10.2083 6.78333 9.72917 6.97917 9.2875 7.2375C8.84583 7.49583 8.44167 7.80833 8.075 8.175L5.6 7.15L4.625 8.85L6.775 10.45C6.69167 10.7 6.63333 10.95 6.6 11.2C6.56667 11.45 6.55 11.7167 6.55 12C6.55 12.2667 6.56667 12.525 6.6 12.775C6.63333 13.025 6.69167 13.275 6.775 13.525L4.625 15.15L5.6 16.85L8.075 15.8C8.44167 16.1833 8.84583 16.5042 9.2875 16.7625C9.72917 17.0208 10.2083 17.2167 10.725 17.35L11.05 20ZM12.1 15.5C13.0667 15.5 13.8917 15.1583 14.575 14.475C15.2583 13.7917 15.6 12.9667 15.6 12C15.6 11.0333 15.2583 10.2083 14.575 9.525C13.8917 8.84167 13.0667 8.5 12.1 8.5C11.1167 8.5 10.2875 8.84167 9.6125 9.525C8.9375 10.2083 8.6 11.0333 8.6 12C8.6 12.9667 8.9375 13.7917 9.6125 14.475C10.2875 15.1583 11.1167 15.5 12.1 15.5Z" fill="#E1E2E8"/>
</svg>
