<svg width="24" height="24" viewBox="0 0 24 24" fill="none" xmlns="http://www.w3.org/2000/svg">
<mask id="mask0_54869_39583" style="mask-type:alpha" maskUnits="userSpaceOnUse" x="0" y="0" width="24" height="24">
<rect width="24" height="24" fill="#D9D9D9"/>
</mask>
<g mask="url(#mask0_54869_39583)">
<path d="M7.775 10.575C7.39167 10.575 7.1 10.4042 6.9 10.0625C6.7 9.72083 6.70833 9.38333 6.925 9.05L10.65 2.975C10.85 2.65833 11.1333 2.5 11.5 2.5C11.8667 2.5 12.15 2.65833 12.35 2.975L16.075 9.05C16.2917 9.38333 16.3 9.72083 16.1 10.0625C15.9 10.4042 15.6083 10.575 15.225 10.575H7.775ZM17 21.575C15.75 21.575 14.6875 21.1375 13.8125 20.2625C12.9375 19.3875 12.5 18.325 12.5 17.075C12.5 15.825 12.9375 14.7625 13.8125 13.8875C14.6875 13.0125 15.75 12.575 17 12.575C18.25 12.575 19.3125 13.0125 20.1875 13.8875C21.0625 14.7625 21.5 15.825 21.5 17.075C21.5 18.325 21.0625 19.3875 20.1875 20.2625C19.3125 21.1375 18.25 21.575 17 21.575ZM3.5 21.075C3.21667 21.075 2.97917 20.9792 2.7875 20.7875C2.59583 20.5958 2.5 20.3583 2.5 20.075V14.075C2.5 13.7917 2.59583 13.5542 2.7875 13.3625C2.97917 13.1708 3.21667 13.075 3.5 13.075H9.5C9.78333 13.075 10.0208 13.1708 10.2125 13.3625C10.4042 13.5542 10.5 13.7917 10.5 14.075V20.075C10.5 20.3583 10.4042 20.5958 10.2125 20.7875C10.0208 20.9792 9.78333 21.075 9.5 21.075H3.5ZM17 19.575C17.7 19.575 18.2917 19.3333 18.775 18.85C19.2583 18.3667 19.5 17.775 19.5 17.075C19.5 16.375 19.2583 15.7833 18.775 15.3C18.2917 14.8167 17.7 14.575 17 14.575C16.3 14.575 15.7083 14.8167 15.225 15.3C14.7417 15.7833 14.5 16.375 14.5 17.075C14.5 17.775 14.7417 18.3667 15.225 18.85C15.7083 19.3333 16.3 19.575 17 19.575ZM4.5 19.075H8.5V15.075H4.5V19.075ZM9.55 8.575H13.45L11.5 5.425L9.55 8.575Z" fill="#E1E2E8"/>
</g>
</svg>
