<svg width="24" height="24" viewBox="0 0 24 24" fill="none" xmlns="http://www.w3.org/2000/svg">
<g clip-path="url(#clip0_58871_8617)">
<mask id="mask0_58871_8617" style="mask-type:alpha" maskUnits="userSpaceOnUse" x="0" y="0" width="24" height="24">
<rect width="24" height="24" fill="#D9D9D9"/>
</mask>
<g mask="url(#mask0_58871_8617)">
<path d="M4.65 22C3.75 22 3.08333 21.8167 2.65 21.45C2.21667 21.0833 2 20.5333 2 19.8C2 18.8333 2.40833 18.2167 3.225 17.95C4.04167 17.6833 5.00833 17.55 6.125 17.55H6.65V16.15C6.65 15.5833 6.64167 15.1208 6.625 14.7625C6.60833 14.4042 6.55833 14.1083 6.475 13.875C6.39167 13.6417 6.29583 13.4792 6.1875 13.3875C6.07917 13.2958 5.93333 13.25 5.75 13.25C5.6 13.25 5.4625 13.275 5.3375 13.325C5.2125 13.375 5.10833 13.4417 5.025 13.525C4.95833 13.6083 4.91667 13.6958 4.9 13.7875C4.88333 13.8792 4.89167 13.975 4.925 14.075C5.025 14.2583 5.14167 14.4375 5.275 14.6125C5.40833 14.7875 5.475 14.9917 5.475 15.225C5.475 15.6417 5.32917 15.9958 5.0375 16.2875C4.74583 16.5792 4.39167 16.725 3.975 16.725C3.55833 16.725 3.20417 16.5792 2.9125 16.2875C2.62083 15.9958 2.475 15.6417 2.475 15.225C2.475 14.775 2.575 14.4083 2.775 14.125C2.975 13.8417 3.24583 13.6167 3.5875 13.45C3.92917 13.2833 4.325 13.1667 4.775 13.1C5.225 13.0333 5.70833 13 6.225 13C7.64167 13 8.625 13.2542 9.175 13.7625C9.725 14.2708 10 15.1667 10 16.45V20.125C10 20.4417 10.0375 20.675 10.1125 20.825C10.1875 20.975 10.3167 21.05 10.5 21.05C10.7 21.05 10.8625 20.9 10.9875 20.6C11.1125 20.3 11.1917 19.8333 11.225 19.2H11.5C11.45 20.2333 11.2542 20.9583 10.9125 21.375C10.5708 21.7917 10 22 9.2 22C8.48333 22 7.92083 21.8875 7.5125 21.6625C7.10417 21.4375 6.84167 21.1 6.725 20.65C6.55833 21.1333 6.3125 21.4792 5.9875 21.6875C5.6625 21.8958 5.21667 22 4.65 22ZM13.975 22C13.6417 22 13.3708 21.8625 13.1625 21.5875C12.9542 21.3125 12.9167 21.0167 13.05 20.7L15.6 13.975C15.7167 13.6917 15.9 13.4583 16.15 13.275C16.4 13.0917 16.6833 13 17 13C17.3167 13 17.6 13.0917 17.85 13.275C18.1 13.4583 18.2833 13.6917 18.4 13.975L20.95 20.7C21.0833 21.0167 21.0458 21.3125 20.8375 21.5875C20.6292 21.8625 20.3583 22 20.025 22C19.825 22 19.6417 21.9417 19.475 21.825C19.3083 21.7083 19.1833 21.55 19.1 21.35L18.6 19.9H15.4L14.9 21.35C14.8333 21.5333 14.7167 21.6875 14.55 21.8125C14.3833 21.9375 14.1917 22 13.975 22ZM5.875 21.275C6.09167 21.275 6.275 21.1042 6.425 20.7625C6.575 20.4208 6.65 20.0083 6.65 19.525V17.85C6.21667 17.85 5.9 17.9792 5.7 18.2375C5.5 18.4958 5.4 18.9167 5.4 19.5V19.775C5.4 20.375 5.43333 20.775 5.5 20.975C5.56667 21.175 5.69167 21.275 5.875 21.275ZM16.05 18.15H17.975L17 15.3L16.05 18.15ZM15.125 11.025C14.325 11.025 13.6875 10.7458 13.2125 10.1875C12.7375 9.62917 12.5 8.875 12.5 7.925C12.5 6.19167 13.05 4.77083 14.15 3.6625C15.25 2.55417 16.6583 2 18.375 2C19.075 2 19.6417 2.07917 20.075 2.2375C20.5083 2.39583 20.725 2.6 20.725 2.85C20.725 2.95 20.7083 3.05 20.675 3.15C20.6417 3.25 20.5833 3.34167 20.5 3.425C20.4167 3.54167 20.3125 3.625 20.1875 3.675C20.0625 3.725 19.9333 3.73333 19.8 3.7C19.5667 3.63333 19.3 3.575 19 3.525C18.7 3.475 18.425 3.45 18.175 3.45C16.9917 3.45 16.0417 3.85 15.325 4.65C14.6083 5.45 14.25 6.50833 14.25 7.825C14.25 8.19167 14.3167 8.575 14.45 8.975C14.5833 9.375 14.8833 9.575 15.35 9.575C15.5333 9.575 15.7125 9.53333 15.8875 9.45C16.0625 9.36667 16.2167 9.25 16.35 9.1C16.6333 8.8 16.8958 8.3 17.1375 7.6C17.3792 6.9 17.6 6.05 17.8 5.05C17.8333 4.83333 17.9208 4.67917 18.0625 4.5875C18.2042 4.49583 18.4 4.45 18.65 4.45C18.95 4.45 19.1792 4.52917 19.3375 4.6875C19.4958 4.84583 19.5417 5.04167 19.475 5.275C19.275 5.99167 19.1292 6.61667 19.0375 7.15C18.9458 7.68333 18.9 8.16667 18.9 8.6C18.9 8.93333 18.9458 9.175 19.0375 9.325C19.1292 9.475 19.2667 9.55 19.45 9.55C19.6333 9.55 19.8125 9.48333 19.9875 9.35C20.1625 9.21667 20.4083 8.96667 20.725 8.6C20.7583 8.55 20.8833 8.49167 21.1 8.425C21.2333 8.425 21.3333 8.475 21.4 8.575C21.4667 8.675 21.5 8.81667 21.5 9C21.5 9.46667 21.2333 9.91667 20.7 10.35C20.1667 10.7833 19.6083 11 19.025 11C18.5917 11 18.2208 10.8833 17.9125 10.65C17.6042 10.4167 17.3917 10.0833 17.275 9.65C17.025 10.0833 16.7167 10.4208 16.35 10.6625C15.9833 10.9042 15.575 11.025 15.125 11.025ZM3 11V5.5C3 4.53333 3.34167 3.70833 4.025 3.025C4.70833 2.34167 5.53333 2 6.5 2C7.46667 2 8.29167 2.34167 8.975 3.025C9.65833 3.70833 10 4.53333 10 5.5V11H8V9H5V11H3ZM5 7H8V5.5C8 5.08333 7.85417 4.72917 7.5625 4.4375C7.27083 4.14583 6.91667 4 6.5 4C6.08333 4 5.72917 4.14583 5.4375 4.4375C5.14583 4.72917 5 5.08333 5 5.5V7Z" fill="#E1E2E8"/>
</g>
</g>
<defs>
<clipPath id="clip0_58871_8617">
<rect width="24" height="24" fill="white"/>
</clipPath>
</defs>
</svg>
