<svg width="24" height="24" viewBox="0 0 24 24" fill="none" xmlns="http://www.w3.org/2000/svg">
<mask id="mask0_54869_39573" style="mask-type:alpha" maskUnits="userSpaceOnUse" x="0" y="0" width="24" height="24">
<rect width="24" height="24" fill="#D9D9D9"/>
</mask>
<g mask="url(#mask0_54869_39573)">
<path d="M12 20.3538C14.2875 18.3254 15.9844 16.4825 17.0906 14.8254C18.1969 13.1682 18.75 11.6966 18.75 10.4107C18.75 8.43661 18.0984 6.82018 16.7953 5.56145C15.4922 4.30272 13.8938 3.67335 12 3.67335C10.1062 3.67335 8.50781 4.30272 7.20469 5.56145C5.90156 6.82018 5.25 8.43661 5.25 10.4107C5.25 11.6966 5.80313 13.1682 6.90938 14.8254C8.01562 16.4825 9.7125 18.3254 12 20.3538ZM12 22.5C11.7375 22.5 11.475 22.4547 11.2125 22.3642C10.95 22.2736 10.7156 22.1378 10.5094 21.9567C9.29063 20.87 8.2125 19.8105 7.275 18.7781C6.3375 17.7458 5.55469 16.7451 4.92656 15.7762C4.29844 14.8072 3.82031 13.8745 3.49219 12.978C3.16406 12.0815 3 11.2257 3 10.4107C3 7.69405 3.90469 5.52975 5.71406 3.91785C7.52344 2.30595 9.61875 1.5 12 1.5C14.3812 1.5 16.4766 2.30595 18.2859 3.91785C20.0953 5.52975 21 7.69405 21 10.4107C21 11.2257 20.8359 12.0815 20.5078 12.978C20.1797 13.8745 19.7016 14.8072 19.0734 15.7762C18.4453 16.7451 17.6625 17.7458 16.725 18.7781C15.7875 19.8105 14.7094 20.87 13.4906 21.9567C13.2844 22.1378 13.05 22.2736 12.7875 22.3642C12.525 22.4547 12.2625 22.5 12 22.5ZM12 12.3668C12.6187 12.3668 13.1484 12.1539 13.5891 11.7283C14.0297 11.3027 14.25 10.7911 14.25 10.1934C14.25 9.59573 14.0297 9.08409 13.5891 8.65847C13.1484 8.23286 12.6187 8.02005 12 8.02005C11.3813 8.02005 10.8516 8.23286 10.4109 8.65847C9.97031 9.08409 9.75 9.59573 9.75 10.1934C9.75 10.7911 9.97031 11.3027 10.4109 11.7283C10.8516 12.1539 11.3813 12.3668 12 12.3668Z" fill="#E1E2E8"/>
</g>
</svg>
