<svg width="24" height="24" viewBox="0 0 24 24" fill="none" xmlns="http://www.w3.org/2000/svg">
<mask id="mask0_54869_39565" style="mask-type:alpha" maskUnits="userSpaceOnUse" x="0" y="0" width="24" height="24">
<rect width="24" height="24" fill="#D9D9D9"/>
</mask>
<g mask="url(#mask0_54869_39565)">
<path d="M9.13379 18H15.1338C15.4171 18 15.6546 17.9042 15.8463 17.7125C16.038 17.5208 16.1338 17.2833 16.1338 17C16.1338 16.7167 16.038 16.4792 15.8463 16.2875C15.6546 16.0958 15.4171 16 15.1338 16H9.13379C8.85046 16 8.61296 16.0958 8.42129 16.2875C8.22962 16.4792 8.13379 16.7167 8.13379 17C8.13379 17.2833 8.22962 17.5208 8.42129 17.7125C8.61296 17.9042 8.85046 18 9.13379 18ZM9.13379 14H15.1338C15.4171 14 15.6546 13.9042 15.8463 13.7125C16.038 13.5208 16.1338 13.2833 16.1338 13C16.1338 12.7167 16.038 12.4792 15.8463 12.2875C15.6546 12.0958 15.4171 12 15.1338 12H9.13379C8.85046 12 8.61296 12.0958 8.42129 12.2875C8.22962 12.4792 8.13379 12.7167 8.13379 13C8.13379 13.2833 8.22962 13.5208 8.42129 13.7125C8.61296 13.9042 8.85046 14 9.13379 14ZM6.13379 22C5.58379 22 5.11296 21.8042 4.72129 21.4125C4.32962 21.0208 4.13379 20.55 4.13379 20V4C4.13379 3.45 4.32962 2.97917 4.72129 2.5875C5.11296 2.19583 5.58379 2 6.13379 2H13.3088C13.5755 2 13.8296 2.05 14.0713 2.15C14.313 2.25 14.5255 2.39167 14.7088 2.575L19.5588 7.425C19.7421 7.60833 19.8838 7.82083 19.9838 8.0625C20.0838 8.30417 20.1338 8.55833 20.1338 8.825V20C20.1338 20.55 19.938 21.0208 19.5463 21.4125C19.1546 21.8042 18.6838 22 18.1338 22H6.13379ZM13.1338 8V4H6.13379V20H18.1338V9H14.1338C13.8505 9 13.613 8.90417 13.4213 8.7125C13.2296 8.52083 13.1338 8.28333 13.1338 8Z" fill="#E1E2E8"/>
</g>
</svg>
