<svg width="24" height="25" viewBox="0 0 24 25" fill="none" xmlns="http://www.w3.org/2000/svg">
<mask id="mask0_54869_39623" style="mask-type:alpha" maskUnits="userSpaceOnUse" x="0" y="0" width="24" height="25">
<rect y="0.0917969" width="24" height="24" fill="#D9D9D9"/>
</mask>
<g mask="url(#mask0_54869_39623)">
<path d="M5 22.0918C4.45 22.0918 3.97917 21.896 3.5875 21.5043C3.19583 21.1126 3 20.6418 3 20.0918V6.0918C3 5.5418 3.19583 5.07096 3.5875 4.6793C3.97917 4.28763 4.45 4.0918 5 4.0918H6V3.0918C6 2.80846 6.09583 2.57096 6.2875 2.3793C6.47917 2.18763 6.71667 2.0918 7 2.0918C7.28333 2.0918 7.52083 2.18763 7.7125 2.3793C7.90417 2.57096 8 2.80846 8 3.0918V4.0918H16V3.0918C16 2.80846 16.0958 2.57096 16.2875 2.3793C16.4792 2.18763 16.7167 2.0918 17 2.0918C17.2833 2.0918 17.5208 2.18763 17.7125 2.3793C17.9042 2.57096 18 2.80846 18 3.0918V4.0918H19C19.55 4.0918 20.0208 4.28763 20.4125 4.6793C20.8042 5.07096 21 5.5418 21 6.0918V20.0918C21 20.6418 20.8042 21.1126 20.4125 21.5043C20.0208 21.896 19.55 22.0918 19 22.0918H5ZM5 20.0918H19V10.0918H5V20.0918ZM5 8.0918H19V6.0918H5V8.0918ZM12 14.0918C11.7167 14.0918 11.4792 13.996 11.2875 13.8043C11.0958 13.6126 11 13.3751 11 13.0918C11 12.8085 11.0958 12.571 11.2875 12.3793C11.4792 12.1876 11.7167 12.0918 12 12.0918C12.2833 12.0918 12.5208 12.1876 12.7125 12.3793C12.9042 12.571 13 12.8085 13 13.0918C13 13.3751 12.9042 13.6126 12.7125 13.8043C12.5208 13.996 12.2833 14.0918 12 14.0918ZM8 14.0918C7.71667 14.0918 7.47917 13.996 7.2875 13.8043C7.09583 13.6126 7 13.3751 7 13.0918C7 12.8085 7.09583 12.571 7.2875 12.3793C7.47917 12.1876 7.71667 12.0918 8 12.0918C8.28333 12.0918 8.52083 12.1876 8.7125 12.3793C8.90417 12.571 9 12.8085 9 13.0918C9 13.3751 8.90417 13.6126 8.7125 13.8043C8.52083 13.996 8.28333 14.0918 8 14.0918ZM16 14.0918C15.7167 14.0918 15.4792 13.996 15.2875 13.8043C15.0958 13.6126 15 13.3751 15 13.0918C15 12.8085 15.0958 12.571 15.2875 12.3793C15.4792 12.1876 15.7167 12.0918 16 12.0918C16.2833 12.0918 16.5208 12.1876 16.7125 12.3793C16.9042 12.571 17 12.8085 17 13.0918C17 13.3751 16.9042 13.6126 16.7125 13.8043C16.5208 13.996 16.2833 14.0918 16 14.0918ZM12 18.0918C11.7167 18.0918 11.4792 17.996 11.2875 17.8043C11.0958 17.6126 11 17.3751 11 17.0918C11 16.8085 11.0958 16.571 11.2875 16.3793C11.4792 16.1876 11.7167 16.0918 12 16.0918C12.2833 16.0918 12.5208 16.1876 12.7125 16.3793C12.9042 16.571 13 16.8085 13 17.0918C13 17.3751 12.9042 17.6126 12.7125 17.8043C12.5208 17.996 12.2833 18.0918 12 18.0918ZM8 18.0918C7.71667 18.0918 7.47917 17.996 7.2875 17.8043C7.09583 17.6126 7 17.3751 7 17.0918C7 16.8085 7.09583 16.571 7.2875 16.3793C7.47917 16.1876 7.71667 16.0918 8 16.0918C8.28333 16.0918 8.52083 16.1876 8.7125 16.3793C8.90417 16.571 9 16.8085 9 17.0918C9 17.3751 8.90417 17.6126 8.7125 17.8043C8.52083 17.996 8.28333 18.0918 8 18.0918ZM16 18.0918C15.7167 18.0918 15.4792 17.996 15.2875 17.8043C15.0958 17.6126 15 17.3751 15 17.0918C15 16.8085 15.0958 16.571 15.2875 16.3793C15.4792 16.1876 15.7167 16.0918 16 16.0918C16.2833 16.0918 16.5208 16.1876 16.7125 16.3793C16.9042 16.571 17 16.8085 17 17.0918C17 17.3751 16.9042 17.6126 16.7125 17.8043C16.5208 17.996 16.2833 18.0918 16 18.0918Z" fill="#BEC8C9"/>
</g>
</svg>
