<svg width="24" height="24" viewBox="0 0 24 24" fill="none" xmlns="http://www.w3.org/2000/svg">
<mask id="mask0_54874_39735" style="mask-type:alpha" maskUnits="userSpaceOnUse" x="0" y="0" width="24" height="24">
<rect width="24" height="24" fill="#D9D9D9"/>
</mask>
<g mask="url(#mask0_54874_39735)">
<path d="M12 4C14.2333 4 16.125 4.775 17.675 6.325C19.225 7.875 20 9.76667 20 12C20 14.2333 19.225 16.125 17.675 17.675C16.125 19.225 14.2333 20 12 20C9.76667 20 7.875 19.225 6.325 17.675C4.775 16.125 4 14.2333 4 12C4 9.76667 4.775 7.875 6.325 6.325C7.875 4.775 9.76667 4 12 4ZM12 15.5C12.8 15.5 13.5167 15.2708 14.15 14.8125C14.7833 14.3542 15.2333 13.75 15.5 13H8.5C8.76667 13.75 9.21667 14.3542 9.85 14.8125C10.4833 15.2708 11.2 15.5 12 15.5ZM8.5 10C8.5 10.2833 8.59583 10.5208 8.7875 10.7125C8.97917 10.9042 9.21667 11 9.5 11C9.78333 11 10.0208 10.9042 10.2125 10.7125C10.4042 10.5208 10.5 10.2833 10.5 10C10.5 9.71667 10.4042 9.47917 10.2125 9.2875C10.0208 9.09583 9.78333 9 9.5 9C9.21667 9 8.97917 9.09583 8.7875 9.2875C8.59583 9.47917 8.5 9.71667 8.5 10ZM13.5 10C13.5 10.2833 13.5958 10.5208 13.7875 10.7125C13.9792 10.9042 14.2167 11 14.5 11C14.7833 11 15.0208 10.9042 15.2125 10.7125C15.4042 10.5208 15.5 10.2833 15.5 10C15.5 9.71667 15.4042 9.47917 15.2125 9.2875C15.0208 9.09583 14.7833 9 14.5 9C14.2167 9 13.9792 9.09583 13.7875 9.2875C13.5958 9.47917 13.5 9.71667 13.5 10ZM1 6V3C1 2.45 1.19583 1.97917 1.5875 1.5875C1.97917 1.19583 2.45 1 3 1H6V3H3V6H1ZM6 23H3C2.45 23 1.97917 22.8042 1.5875 22.4125C1.19583 22.0208 1 21.55 1 21V18H3V21H6V23ZM18 23V21H21V18H23V21C23 21.55 22.8042 22.0208 22.4125 22.4125C22.0208 22.8042 21.55 23 21 23H18ZM21 6V3H18V1H21C21.55 1 22.0208 1.19583 22.4125 1.5875C22.8042 1.97917 23 2.45 23 3V6H21Z" fill="#D8E2FF"/>
</g>
</svg>
