<svg width="16" height="16" viewBox="0 0 16 16" fill="none" xmlns="http://www.w3.org/2000/svg">
<mask id="mask0_63807_43438" style="mask-type:alpha" maskUnits="userSpaceOnUse" x="0" y="0" width="16" height="16">
<rect width="16" height="16" fill="#D9D9D9"/>
</mask>
<g mask="url(#mask0_63807_43438)">
<path d="M8.00016 14.6667C7.08905 14.6667 6.22794 14.4917 5.41683 14.1417C4.60572 13.7917 3.89739 13.3139 3.29183 12.7083C2.68627 12.1028 2.2085 11.3944 1.8585 10.5833C1.5085 9.77222 1.3335 8.91111 1.3335 8C1.3335 7.07777 1.5085 6.21388 1.8585 5.40833C2.2085 4.60277 2.68627 3.89722 3.29183 3.29166C3.89739 2.68611 4.60572 2.20833 5.41683 1.85833C6.22794 1.50833 7.08905 1.33333 8.00016 1.33333C8.92239 1.33333 9.78627 1.50833 10.5918 1.85833C11.3974 2.20833 12.1029 2.68611 12.7085 3.29166C13.3141 3.89722 13.7918 4.60277 14.1418 5.40833C14.4918 6.21388 14.6668 7.07777 14.6668 8C14.6668 8.91111 14.4918 9.77222 14.1418 10.5833C13.7918 11.3944 13.3141 12.1028 12.7085 12.7083C12.1029 13.3139 11.3974 13.7917 10.5918 14.1417C9.78627 14.4917 8.92239 14.6667 8.00016 14.6667ZM8.00016 13.3C8.28905 12.9 8.53905 12.4833 8.75016 12.05C8.96127 11.6167 9.1335 11.1556 9.26683 10.6667H6.7335C6.86683 11.1556 7.03905 11.6167 7.25016 12.05C7.46127 12.4833 7.71127 12.9 8.00016 13.3ZM6.26683 13.0333C6.06683 12.6667 5.89183 12.2861 5.74183 11.8917C5.59183 11.4972 5.46683 11.0889 5.36683 10.6667H3.40016C3.72239 11.2222 4.12516 11.7056 4.6085 12.1167C5.09183 12.5278 5.64461 12.8333 6.26683 13.0333ZM9.7335 13.0333C10.3557 12.8333 10.9085 12.5278 11.3918 12.1167C11.8752 11.7056 12.2779 11.2222 12.6002 10.6667H10.6335C10.5335 11.0889 10.4085 11.4972 10.2585 11.8917C10.1085 12.2861 9.9335 12.6667 9.7335 13.0333ZM2.8335 9.33333H5.10016C5.06683 9.11111 5.04183 8.89166 5.02516 8.67499C5.0085 8.45833 5.00016 8.23333 5.00016 8C5.00016 7.76666 5.0085 7.54166 5.02516 7.325C5.04183 7.10833 5.06683 6.88888 5.10016 6.66666H2.8335C2.77794 6.88888 2.73627 7.10833 2.7085 7.325C2.68072 7.54166 2.66683 7.76666 2.66683 8C2.66683 8.23333 2.68072 8.45833 2.7085 8.67499C2.73627 8.89166 2.77794 9.11111 2.8335 9.33333ZM6.4335 9.33333H9.56683C9.60016 9.11111 9.62516 8.89166 9.64183 8.67499C9.6585 8.45833 9.66683 8.23333 9.66683 8C9.66683 7.76666 9.6585 7.54166 9.64183 7.325C9.62516 7.10833 9.60016 6.88888 9.56683 6.66666H6.4335C6.40016 6.88888 6.37516 7.10833 6.3585 7.325C6.34183 7.54166 6.3335 7.76666 6.3335 8C6.3335 8.23333 6.34183 8.45833 6.3585 8.67499C6.37516 8.89166 6.40016 9.11111 6.4335 9.33333ZM10.9002 9.33333H13.1668C13.2224 9.11111 13.2641 8.89166 13.2918 8.67499C13.3196 8.45833 13.3335 8.23333 13.3335 8C13.3335 7.76666 13.3196 7.54166 13.2918 7.325C13.2641 7.10833 13.2224 6.88888 13.1668 6.66666H10.9002C10.9335 6.88888 10.9585 7.10833 10.9752 7.325C10.9918 7.54166 11.0002 7.76666 11.0002 8C11.0002 8.23333 10.9918 8.45833 10.9752 8.67499C10.9585 8.89166 10.9335 9.11111 10.9002 9.33333ZM10.6335 5.33333H12.6002C12.2779 4.77777 11.8752 4.29444 11.3918 3.88333C10.9085 3.47222 10.3557 3.16666 9.7335 2.96666C9.9335 3.33333 10.1085 3.71388 10.2585 4.10833C10.4085 4.50277 10.5335 4.91111 10.6335 5.33333ZM6.7335 5.33333H9.26683C9.1335 4.84444 8.96127 4.38333 8.75016 3.95C8.53905 3.51666 8.28905 3.09999 8.00016 2.69999C7.71127 3.09999 7.46127 3.51666 7.25016 3.95C7.03905 4.38333 6.86683 4.84444 6.7335 5.33333ZM3.40016 5.33333H5.36683C5.46683 4.91111 5.59183 4.50277 5.74183 4.10833C5.89183 3.71388 6.06683 3.33333 6.26683 2.96666C5.64461 3.16666 5.09183 3.47222 4.6085 3.88333C4.12516 4.29444 3.72239 4.77777 3.40016 5.33333Z" fill="#BCC8F5"/>
</g>
</svg>
