<svg width="25" height="24" viewBox="0 0 25 24" fill="none" xmlns="http://www.w3.org/2000/svg">
<mask id="mask0_54869_39627" style="mask-type:alpha" maskUnits="userSpaceOnUse" x="0" y="0" width="25" height="24">
<rect x="0.644531" width="24" height="24" fill="#D9D9D9"/>
</mask>
<g mask="url(#mask0_54869_39627)">
<path d="M5.64453 22C5.09453 22 4.6237 21.8042 4.23203 21.4125C3.84036 21.0208 3.64453 20.55 3.64453 20V6C3.64453 5.45 3.84036 4.97917 4.23203 4.5875C4.6237 4.19583 5.09453 4 5.64453 4H6.64453V3C6.64453 2.71667 6.74036 2.47917 6.93203 2.2875C7.1237 2.09583 7.3612 2 7.64453 2C7.92786 2 8.16536 2.09583 8.35703 2.2875C8.5487 2.47917 8.64453 2.71667 8.64453 3V4H16.6445V3C16.6445 2.71667 16.7404 2.47917 16.932 2.2875C17.1237 2.09583 17.3612 2 17.6445 2C17.9279 2 18.1654 2.09583 18.357 2.2875C18.5487 2.47917 18.6445 2.71667 18.6445 3V4H19.6445C20.1945 4 20.6654 4.19583 21.057 4.5875C21.4487 4.97917 21.6445 5.45 21.6445 6V20C21.6445 20.55 21.4487 21.0208 21.057 21.4125C20.6654 21.8042 20.1945 22 19.6445 22H5.64453ZM5.64453 20H19.6445V10H5.64453V20ZM12.6445 14C12.3612 14 12.1237 13.9042 11.932 13.7125C11.7404 13.5208 11.6445 13.2833 11.6445 13C11.6445 12.7167 11.7404 12.4792 11.932 12.2875C12.1237 12.0958 12.3612 12 12.6445 12C12.9279 12 13.1654 12.0958 13.357 12.2875C13.5487 12.4792 13.6445 12.7167 13.6445 13C13.6445 13.2833 13.5487 13.5208 13.357 13.7125C13.1654 13.9042 12.9279 14 12.6445 14ZM8.64453 14C8.3612 14 8.1237 13.9042 7.93203 13.7125C7.74036 13.5208 7.64453 13.2833 7.64453 13C7.64453 12.7167 7.74036 12.4792 7.93203 12.2875C8.1237 12.0958 8.3612 12 8.64453 12C8.92786 12 9.16536 12.0958 9.35703 12.2875C9.5487 12.4792 9.64453 12.7167 9.64453 13C9.64453 13.2833 9.5487 13.5208 9.35703 13.7125C9.16536 13.9042 8.92786 14 8.64453 14ZM16.6445 14C16.3612 14 16.1237 13.9042 15.932 13.7125C15.7404 13.5208 15.6445 13.2833 15.6445 13C15.6445 12.7167 15.7404 12.4792 15.932 12.2875C16.1237 12.0958 16.3612 12 16.6445 12C16.9279 12 17.1654 12.0958 17.357 12.2875C17.5487 12.4792 17.6445 12.7167 17.6445 13C17.6445 13.2833 17.5487 13.5208 17.357 13.7125C17.1654 13.9042 16.9279 14 16.6445 14ZM12.6445 18C12.3612 18 12.1237 17.9042 11.932 17.7125C11.7404 17.5208 11.6445 17.2833 11.6445 17C11.6445 16.7167 11.7404 16.4792 11.932 16.2875C12.1237 16.0958 12.3612 16 12.6445 16C12.9279 16 13.1654 16.0958 13.357 16.2875C13.5487 16.4792 13.6445 16.7167 13.6445 17C13.6445 17.2833 13.5487 17.5208 13.357 17.7125C13.1654 17.9042 12.9279 18 12.6445 18ZM8.64453 18C8.3612 18 8.1237 17.9042 7.93203 17.7125C7.74036 17.5208 7.64453 17.2833 7.64453 17C7.64453 16.7167 7.74036 16.4792 7.93203 16.2875C8.1237 16.0958 8.3612 16 8.64453 16C8.92786 16 9.16536 16.0958 9.35703 16.2875C9.5487 16.4792 9.64453 16.7167 9.64453 17C9.64453 17.2833 9.5487 17.5208 9.35703 17.7125C9.16536 17.9042 8.92786 18 8.64453 18ZM16.6445 18C16.3612 18 16.1237 17.9042 15.932 17.7125C15.7404 17.5208 15.6445 17.2833 15.6445 17C15.6445 16.7167 15.7404 16.4792 15.932 16.2875C16.1237 16.0958 16.3612 16 16.6445 16C16.9279 16 17.1654 16.0958 17.357 16.2875C17.5487 16.4792 17.6445 16.7167 17.6445 17C17.6445 17.2833 17.5487 17.5208 17.357 17.7125C17.1654 17.9042 16.9279 18 16.6445 18Z" fill="#D8E2FF"/>
</g>
</svg>
