<svg width="256" height="256" viewBox="0 0 256 256" fill="none" xmlns="http://www.w3.org/2000/svg">
<g clip-path="url(#clip0_55_13344)">
<rect width="256" height="256" rx="32" fill="black"/>
<g clip-path="url(#clip1_55_13344)">
<rect width="256" height="256" fill="#032024"/>
<path d="M103.572 109.797L147.532 69.484C163.492 54.8505 194.37 61.47 194.37 83.1014V173.09C194.37 194.726 163.316 201.097 147.356 186.458L103.572 146.394C92.8338 136.555 92.8338 119.646 103.572 109.797Z" fill="#48D597"/>
<path d="M119.444 83.9828L97.9671 103.686C91.1382 109.948 87.2234 118.843 87.2234 128.101C87.2234 137.354 91.1382 146.254 97.9671 152.516L119.294 172.032L104.749 186.521C90.0545 201.154 61.6293 194.535 61.6293 172.898V82.9098C61.6293 61.2732 90.2152 54.9025 104.91 69.5411L119.444 83.9828Z" fill="#18AFDE"/>
</g>
</g>
<defs>
<clipPath id="clip0_55_13344">
<rect width="256" height="256" rx="32" fill="white"/>
</clipPath>
<clipPath id="clip1_55_13344">
<rect width="256" height="256" fill="white"/>
</clipPath>
</defs>
</svg>
