<svg width="16" height="16" viewBox="0 0 16 16" fill="none" xmlns="http://www.w3.org/2000/svg">
<mask id="mask0_63807_43426" style="mask-type:alpha" maskUnits="userSpaceOnUse" x="0" y="0" width="24" height="24">
<rect width="24" height="24" fill="#D9D9D9"/>
</mask>
<g mask="url(#mask0_63807_43426)">
<path d="M8.66683 7.73334V5.33334C8.66683 5.14445 8.60294 4.98612 8.47516 4.85834C8.34739 4.73057 8.18905 4.66668 8.00016 4.66668C7.81127 4.66668 7.65294 4.73057 7.52516 4.85834C7.39739 4.98612 7.3335 5.14445 7.3335 5.33334V7.98334C7.3335 8.07223 7.35016 8.15834 7.3835 8.24168C7.41683 8.32501 7.46683 8.40001 7.5335 8.46668L9.7335 10.6667C9.85572 10.7889 10.0113 10.85 10.2002 10.85C10.3891 10.85 10.5446 10.7889 10.6668 10.6667C10.7891 10.5445 10.8502 10.3889 10.8502 10.2C10.8502 10.0111 10.7891 9.85557 10.6668 9.73334L8.66683 7.73334ZM8.00016 14.6667C7.07794 14.6667 6.21127 14.4917 5.40016 14.1417C4.58905 13.7917 3.8835 13.3167 3.2835 12.7167C2.6835 12.1167 2.2085 11.4111 1.8585 10.6C1.5085 9.7889 1.3335 8.92223 1.3335 8.00001C1.3335 7.07779 1.5085 6.21112 1.8585 5.40001C2.2085 4.5889 2.6835 3.88334 3.2835 3.28334C3.8835 2.68334 4.58905 2.20834 5.40016 1.85834C6.21127 1.50834 7.07794 1.33334 8.00016 1.33334C8.92239 1.33334 9.78905 1.50834 10.6002 1.85834C11.4113 2.20834 12.1168 2.68334 12.7168 3.28334C13.3168 3.88334 13.7918 4.5889 14.1418 5.40001C14.4918 6.21112 14.6668 7.07779 14.6668 8.00001C14.6668 8.92223 14.4918 9.7889 14.1418 10.6C13.7918 11.4111 13.3168 12.1167 12.7168 12.7167C12.1168 13.3167 11.4113 13.7917 10.6002 14.1417C9.78905 14.4917 8.92239 14.6667 8.00016 14.6667ZM8.00016 13.3333C9.47794 13.3333 10.7363 12.8139 11.7752 11.775C12.8141 10.7361 13.3335 9.47779 13.3335 8.00001C13.3335 6.52223 12.8141 5.2639 11.7752 4.22501C10.7363 3.18612 9.47794 2.66668 8.00016 2.66668C6.52239 2.66668 5.26405 3.18612 4.22516 4.22501C3.18627 5.2639 2.66683 6.52223 2.66683 8.00001C2.66683 9.47779 3.18627 10.7361 4.22516 11.775C5.26405 12.8139 6.52239 13.3333 8.00016 13.3333Z" fill="#BCC8F5"/>
</g>
</svg>
