<svg width="16" height="16" viewBox="0 0 16 16" fill="none" xmlns="http://www.w3.org/2000/svg">
<mask id="mask0_63807_43445" style="mask-type:alpha" maskUnits="userSpaceOnUse" x="0" y="0" width="16" height="16">
<rect width="16" height="16" fill="#D9D9D9"/>
</mask>
<g mask="url(#mask0_63807_43445)">
<path d="M5.18317 7.05C4.92761 7.05 4.73317 6.93612 4.59984 6.70834C4.4665 6.48056 4.47206 6.25556 4.6165 6.03334L7.09984 1.98334C7.23317 1.77223 7.42206 1.66667 7.6665 1.66667C7.91095 1.66667 8.09984 1.77223 8.23317 1.98334L10.7165 6.03334C10.8609 6.25556 10.8665 6.48056 10.7332 6.70834C10.5998 6.93612 10.4054 7.05 10.1498 7.05H5.18317ZM11.3332 14.3833C10.4998 14.3833 9.7915 14.0917 9.20817 13.5083C8.62484 12.925 8.33317 12.2167 8.33317 11.3833C8.33317 10.55 8.62484 9.84167 9.20817 9.25834C9.7915 8.675 10.4998 8.38334 11.3332 8.38334C12.1665 8.38334 12.8748 8.675 13.4582 9.25834C14.0415 9.84167 14.3332 10.55 14.3332 11.3833C14.3332 12.2167 14.0415 12.925 13.4582 13.5083C12.8748 14.0917 12.1665 14.3833 11.3332 14.3833ZM2.33317 14.05C2.14428 14.05 1.98595 13.9861 1.85817 13.8583C1.73039 13.7306 1.6665 13.5722 1.6665 13.3833V9.38334C1.6665 9.19445 1.73039 9.03612 1.85817 8.90834C1.98595 8.78056 2.14428 8.71667 2.33317 8.71667H6.33317C6.52206 8.71667 6.68039 8.78056 6.80817 8.90834C6.93595 9.03612 6.99984 9.19445 6.99984 9.38334V13.3833C6.99984 13.5722 6.93595 13.7306 6.80817 13.8583C6.68039 13.9861 6.52206 14.05 6.33317 14.05H2.33317ZM11.3332 13.05C11.7998 13.05 12.1943 12.8889 12.5165 12.5667C12.8387 12.2444 12.9998 11.85 12.9998 11.3833C12.9998 10.9167 12.8387 10.5222 12.5165 10.2C12.1943 9.87778 11.7998 9.71667 11.3332 9.71667C10.8665 9.71667 10.4721 9.87778 10.1498 10.2C9.82761 10.5222 9.6665 10.9167 9.6665 11.3833C9.6665 11.85 9.82761 12.2444 10.1498 12.5667C10.4721 12.8889 10.8665 13.05 11.3332 13.05ZM2.99984 12.7167H5.6665V10.05H2.99984V12.7167ZM6.3665 5.71667H8.9665L7.6665 3.61667L6.3665 5.71667Z" fill="#BCC8F5"/>
</g>
</svg>
